<mxfile host="Electron" modified="2023-07-22T12:06:04.448Z" agent="Mozilla/5.0 (Windows NT 10.0; Win64; x64) AppleWebKit/537.36 (KHTML, like Gecko) draw.io/21.5.0 Chrome/112.0.5615.204 Electron/24.5.1 Safari/537.36" etag="8Mui-_Pto0FH2u0rJ8JV" version="21.5.0" type="device">
  <diagram id="C5RBs43oDa-KdzZeNtuy" name="Page-1">
    <mxGraphModel dx="472" dy="820" grid="1" gridSize="10" guides="1" tooltips="1" connect="1" arrows="1" fold="1" page="1" pageScale="1" pageWidth="827" pageHeight="1169" math="0" shadow="0">
      <root>
        <mxCell id="WIyWlLk6GJQsqaUBKTNV-0" />
        <mxCell id="WIyWlLk6GJQsqaUBKTNV-1" parent="WIyWlLk6GJQsqaUBKTNV-0" />
        <mxCell id="QsSNJspytgetrYn3SfOf-1" value="role" style="swimlane;fontStyle=1;align=center;verticalAlign=top;childLayout=stackLayout;horizontal=1;startSize=26;horizontalStack=0;resizeParent=1;resizeParentMax=0;resizeLast=0;collapsible=1;marginBottom=0;whiteSpace=wrap;html=1;" parent="WIyWlLk6GJQsqaUBKTNV-1" vertex="1">
          <mxGeometry x="40" y="80" width="180" height="86" as="geometry" />
        </mxCell>
        <mxCell id="QsSNJspytgetrYn3SfOf-2" value="+ name: string" style="text;strokeColor=none;fillColor=none;align=left;verticalAlign=top;spacingLeft=4;spacingRight=4;overflow=hidden;rotatable=0;points=[[0,0.5],[1,0.5]];portConstraint=eastwest;whiteSpace=wrap;html=1;" parent="QsSNJspytgetrYn3SfOf-1" vertex="1">
          <mxGeometry y="26" width="180" height="26" as="geometry" />
        </mxCell>
        <mxCell id="QsSNJspytgetrYn3SfOf-3" value="" style="line;strokeWidth=1;fillColor=none;align=left;verticalAlign=middle;spacingTop=-1;spacingLeft=3;spacingRight=3;rotatable=0;labelPosition=right;points=[];portConstraint=eastwest;strokeColor=inherit;" parent="QsSNJspytgetrYn3SfOf-1" vertex="1">
          <mxGeometry y="52" width="180" height="8" as="geometry" />
        </mxCell>
        <mxCell id="QsSNJspytgetrYn3SfOf-4" value="+ method(type): type" style="text;strokeColor=none;fillColor=none;align=left;verticalAlign=top;spacingLeft=4;spacingRight=4;overflow=hidden;rotatable=0;points=[[0,0.5],[1,0.5]];portConstraint=eastwest;whiteSpace=wrap;html=1;" parent="QsSNJspytgetrYn3SfOf-1" vertex="1">
          <mxGeometry y="60" width="180" height="26" as="geometry" />
        </mxCell>
        <mxCell id="QsSNJspytgetrYn3SfOf-5" value="user" style="swimlane;fontStyle=1;align=center;verticalAlign=top;childLayout=stackLayout;horizontal=1;startSize=26;horizontalStack=0;resizeParent=1;resizeParentMax=0;resizeLast=0;collapsible=1;marginBottom=0;whiteSpace=wrap;html=1;" parent="WIyWlLk6GJQsqaUBKTNV-1" vertex="1">
          <mxGeometry x="360" y="80" width="160" height="272" as="geometry" />
        </mxCell>
        <mxCell id="QsSNJspytgetrYn3SfOf-9" value="- userId: int" style="text;strokeColor=none;fillColor=none;align=left;verticalAlign=top;spacingLeft=4;spacingRight=4;overflow=hidden;rotatable=0;points=[[0,0.5],[1,0.5]];portConstraint=eastwest;whiteSpace=wrap;html=1;" parent="QsSNJspytgetrYn3SfOf-5" vertex="1">
          <mxGeometry y="26" width="160" height="26" as="geometry" />
        </mxCell>
        <mxCell id="QsSNJspytgetrYn3SfOf-37" value="- email: string" style="text;strokeColor=none;fillColor=none;align=left;verticalAlign=top;spacingLeft=4;spacingRight=4;overflow=hidden;rotatable=0;points=[[0,0.5],[1,0.5]];portConstraint=eastwest;whiteSpace=wrap;html=1;" parent="QsSNJspytgetrYn3SfOf-5" vertex="1">
          <mxGeometry y="52" width="160" height="26" as="geometry" />
        </mxCell>
        <mxCell id="QsSNJspytgetrYn3SfOf-6" value="- name: string" style="text;strokeColor=none;fillColor=none;align=left;verticalAlign=top;spacingLeft=4;spacingRight=4;overflow=hidden;rotatable=0;points=[[0,0.5],[1,0.5]];portConstraint=eastwest;whiteSpace=wrap;html=1;" parent="QsSNJspytgetrYn3SfOf-5" vertex="1">
          <mxGeometry y="78" width="160" height="26" as="geometry" />
        </mxCell>
        <mxCell id="QsSNJspytgetrYn3SfOf-11" value="- password: password" style="text;strokeColor=none;fillColor=none;align=left;verticalAlign=top;spacingLeft=4;spacingRight=4;overflow=hidden;rotatable=0;points=[[0,0.5],[1,0.5]];portConstraint=eastwest;whiteSpace=wrap;html=1;" parent="QsSNJspytgetrYn3SfOf-5" vertex="1">
          <mxGeometry y="104" width="160" height="26" as="geometry" />
        </mxCell>
        <mxCell id="QsSNJspytgetrYn3SfOf-7" value="" style="line;strokeWidth=1;fillColor=none;align=left;verticalAlign=middle;spacingTop=-1;spacingLeft=3;spacingRight=3;rotatable=0;labelPosition=right;points=[];portConstraint=eastwest;strokeColor=inherit;" parent="QsSNJspytgetrYn3SfOf-5" vertex="1">
          <mxGeometry y="130" width="160" height="8" as="geometry" />
        </mxCell>
        <mxCell id="QsSNJspytgetrYn3SfOf-8" value="+ createUser()" style="text;strokeColor=none;fillColor=none;align=left;verticalAlign=top;spacingLeft=4;spacingRight=4;overflow=hidden;rotatable=0;points=[[0,0.5],[1,0.5]];portConstraint=eastwest;whiteSpace=wrap;html=1;" parent="QsSNJspytgetrYn3SfOf-5" vertex="1">
          <mxGeometry y="138" width="160" height="28" as="geometry" />
        </mxCell>
        <mxCell id="QsSNJspytgetrYn3SfOf-14" value="+ updateUser()" style="text;strokeColor=none;fillColor=none;align=left;verticalAlign=top;spacingLeft=4;spacingRight=4;overflow=hidden;rotatable=0;points=[[0,0.5],[1,0.5]];portConstraint=eastwest;whiteSpace=wrap;html=1;" parent="QsSNJspytgetrYn3SfOf-5" vertex="1">
          <mxGeometry y="166" width="160" height="26" as="geometry" />
        </mxCell>
        <mxCell id="QsSNJspytgetrYn3SfOf-13" value="+ deleteUser()" style="text;strokeColor=none;fillColor=none;align=left;verticalAlign=top;spacingLeft=4;spacingRight=4;overflow=hidden;rotatable=0;points=[[0,0.5],[1,0.5]];portConstraint=eastwest;whiteSpace=wrap;html=1;" parent="QsSNJspytgetrYn3SfOf-5" vertex="1">
          <mxGeometry y="192" width="160" height="26" as="geometry" />
        </mxCell>
        <mxCell id="QsSNJspytgetrYn3SfOf-25" value="+ getUsers()" style="text;strokeColor=none;fillColor=none;align=left;verticalAlign=top;spacingLeft=4;spacingRight=4;overflow=hidden;rotatable=0;points=[[0,0.5],[1,0.5]];portConstraint=eastwest;whiteSpace=wrap;html=1;" parent="QsSNJspytgetrYn3SfOf-5" vertex="1">
          <mxGeometry y="218" width="160" height="26" as="geometry" />
        </mxCell>
        <mxCell id="QsSNJspytgetrYn3SfOf-15" value="+ login()" style="text;strokeColor=none;fillColor=none;align=left;verticalAlign=top;spacingLeft=4;spacingRight=4;overflow=hidden;rotatable=0;points=[[0,0.5],[1,0.5]];portConstraint=eastwest;whiteSpace=wrap;html=1;" parent="QsSNJspytgetrYn3SfOf-5" vertex="1">
          <mxGeometry y="244" width="160" height="28" as="geometry" />
        </mxCell>
        <mxCell id="QsSNJspytgetrYn3SfOf-16" value="branch" style="swimlane;fontStyle=1;align=center;verticalAlign=top;childLayout=stackLayout;horizontal=1;startSize=26;horizontalStack=0;resizeParent=1;resizeParentMax=0;resizeLast=0;collapsible=1;marginBottom=0;whiteSpace=wrap;html=1;" parent="WIyWlLk6GJQsqaUBKTNV-1" vertex="1">
          <mxGeometry x="40" y="200" width="180" height="270" as="geometry" />
        </mxCell>
        <mxCell id="QsSNJspytgetrYn3SfOf-17" value="- branchId: int" style="text;strokeColor=none;fillColor=none;align=left;verticalAlign=top;spacingLeft=4;spacingRight=4;overflow=hidden;rotatable=0;points=[[0,0.5],[1,0.5]];portConstraint=eastwest;whiteSpace=wrap;html=1;" parent="QsSNJspytgetrYn3SfOf-16" vertex="1">
          <mxGeometry y="26" width="180" height="26" as="geometry" />
        </mxCell>
        <mxCell id="QsSNJspytgetrYn3SfOf-38" value="- email: string" style="text;strokeColor=none;fillColor=none;align=left;verticalAlign=top;spacingLeft=4;spacingRight=4;overflow=hidden;rotatable=0;points=[[0,0.5],[1,0.5]];portConstraint=eastwest;whiteSpace=wrap;html=1;" parent="QsSNJspytgetrYn3SfOf-16" vertex="1">
          <mxGeometry y="52" width="180" height="26" as="geometry" />
        </mxCell>
        <mxCell id="QsSNJspytgetrYn3SfOf-18" value="- status: boolean" style="text;strokeColor=none;fillColor=none;align=left;verticalAlign=top;spacingLeft=4;spacingRight=4;overflow=hidden;rotatable=0;points=[[0,0.5],[1,0.5]];portConstraint=eastwest;whiteSpace=wrap;html=1;" parent="QsSNJspytgetrYn3SfOf-16" vertex="1">
          <mxGeometry y="78" width="180" height="26" as="geometry" />
        </mxCell>
        <mxCell id="QsSNJspytgetrYn3SfOf-19" value="- prefix: string" style="text;strokeColor=none;fillColor=none;align=left;verticalAlign=top;spacingLeft=4;spacingRight=4;overflow=hidden;rotatable=0;points=[[0,0.5],[1,0.5]];portConstraint=eastwest;whiteSpace=wrap;html=1;" parent="QsSNJspytgetrYn3SfOf-16" vertex="1">
          <mxGeometry y="104" width="180" height="26" as="geometry" />
        </mxCell>
        <mxCell id="QsSNJspytgetrYn3SfOf-20" value="" style="line;strokeWidth=1;fillColor=none;align=left;verticalAlign=middle;spacingTop=-1;spacingLeft=3;spacingRight=3;rotatable=0;labelPosition=right;points=[];portConstraint=eastwest;strokeColor=inherit;" parent="QsSNJspytgetrYn3SfOf-16" vertex="1">
          <mxGeometry y="130" width="180" height="8" as="geometry" />
        </mxCell>
        <mxCell id="QsSNJspytgetrYn3SfOf-21" value="+ createBranch()" style="text;strokeColor=none;fillColor=none;align=left;verticalAlign=top;spacingLeft=4;spacingRight=4;overflow=hidden;rotatable=0;points=[[0,0.5],[1,0.5]];portConstraint=eastwest;whiteSpace=wrap;html=1;" parent="QsSNJspytgetrYn3SfOf-16" vertex="1">
          <mxGeometry y="138" width="180" height="28" as="geometry" />
        </mxCell>
        <mxCell id="QsSNJspytgetrYn3SfOf-22" value="+ updateBranch()" style="text;strokeColor=none;fillColor=none;align=left;verticalAlign=top;spacingLeft=4;spacingRight=4;overflow=hidden;rotatable=0;points=[[0,0.5],[1,0.5]];portConstraint=eastwest;whiteSpace=wrap;html=1;" parent="QsSNJspytgetrYn3SfOf-16" vertex="1">
          <mxGeometry y="166" width="180" height="26" as="geometry" />
        </mxCell>
        <mxCell id="QsSNJspytgetrYn3SfOf-23" value="+ deleteBranch()" style="text;strokeColor=none;fillColor=none;align=left;verticalAlign=top;spacingLeft=4;spacingRight=4;overflow=hidden;rotatable=0;points=[[0,0.5],[1,0.5]];portConstraint=eastwest;whiteSpace=wrap;html=1;" parent="QsSNJspytgetrYn3SfOf-16" vertex="1">
          <mxGeometry y="192" width="180" height="26" as="geometry" />
        </mxCell>
        <mxCell id="QsSNJspytgetrYn3SfOf-26" value="+ getBranches()" style="text;strokeColor=none;fillColor=none;align=left;verticalAlign=top;spacingLeft=4;spacingRight=4;overflow=hidden;rotatable=0;points=[[0,0.5],[1,0.5]];portConstraint=eastwest;whiteSpace=wrap;html=1;" parent="QsSNJspytgetrYn3SfOf-16" vertex="1">
          <mxGeometry y="218" width="180" height="26" as="geometry" />
        </mxCell>
        <mxCell id="QsSNJspytgetrYn3SfOf-24" value="+ getBranches()" style="text;strokeColor=none;fillColor=none;align=left;verticalAlign=top;spacingLeft=4;spacingRight=4;overflow=hidden;rotatable=0;points=[[0,0.5],[1,0.5]];portConstraint=eastwest;whiteSpace=wrap;html=1;" parent="QsSNJspytgetrYn3SfOf-16" vertex="1">
          <mxGeometry y="244" width="180" height="26" as="geometry" />
        </mxCell>
        <mxCell id="QsSNJspytgetrYn3SfOf-27" value="wishList" style="swimlane;fontStyle=1;align=center;verticalAlign=top;childLayout=stackLayout;horizontal=1;startSize=26;horizontalStack=0;resizeParent=1;resizeParentMax=0;resizeLast=0;collapsible=1;marginBottom=0;whiteSpace=wrap;html=1;" parent="WIyWlLk6GJQsqaUBKTNV-1" vertex="1">
          <mxGeometry x="40" y="512" width="180" height="166" as="geometry" />
        </mxCell>
        <mxCell id="QsSNJspytgetrYn3SfOf-28" value="- wishListId: int" style="text;strokeColor=none;fillColor=none;align=left;verticalAlign=top;spacingLeft=4;spacingRight=4;overflow=hidden;rotatable=0;points=[[0,0.5],[1,0.5]];portConstraint=eastwest;whiteSpace=wrap;html=1;" parent="QsSNJspytgetrYn3SfOf-27" vertex="1">
          <mxGeometry y="26" width="180" height="26" as="geometry" />
        </mxCell>
        <mxCell id="QsSNJspytgetrYn3SfOf-31" value="" style="line;strokeWidth=1;fillColor=none;align=left;verticalAlign=middle;spacingTop=-1;spacingLeft=3;spacingRight=3;rotatable=0;labelPosition=right;points=[];portConstraint=eastwest;strokeColor=inherit;" parent="QsSNJspytgetrYn3SfOf-27" vertex="1">
          <mxGeometry y="52" width="180" height="8" as="geometry" />
        </mxCell>
        <mxCell id="QsSNJspytgetrYn3SfOf-32" value="+ createwishList()" style="text;strokeColor=none;fillColor=none;align=left;verticalAlign=top;spacingLeft=4;spacingRight=4;overflow=hidden;rotatable=0;points=[[0,0.5],[1,0.5]];portConstraint=eastwest;whiteSpace=wrap;html=1;" parent="QsSNJspytgetrYn3SfOf-27" vertex="1">
          <mxGeometry y="60" width="180" height="28" as="geometry" />
        </mxCell>
        <mxCell id="QsSNJspytgetrYn3SfOf-33" value="+ updatewishList()" style="text;strokeColor=none;fillColor=none;align=left;verticalAlign=top;spacingLeft=4;spacingRight=4;overflow=hidden;rotatable=0;points=[[0,0.5],[1,0.5]];portConstraint=eastwest;whiteSpace=wrap;html=1;" parent="QsSNJspytgetrYn3SfOf-27" vertex="1">
          <mxGeometry y="88" width="180" height="26" as="geometry" />
        </mxCell>
        <mxCell id="QsSNJspytgetrYn3SfOf-34" value="+ deletewishList()" style="text;strokeColor=none;fillColor=none;align=left;verticalAlign=top;spacingLeft=4;spacingRight=4;overflow=hidden;rotatable=0;points=[[0,0.5],[1,0.5]];portConstraint=eastwest;whiteSpace=wrap;html=1;" parent="QsSNJspytgetrYn3SfOf-27" vertex="1">
          <mxGeometry y="114" width="180" height="26" as="geometry" />
        </mxCell>
        <mxCell id="QsSNJspytgetrYn3SfOf-35" value="+ getWishlists()" style="text;strokeColor=none;fillColor=none;align=left;verticalAlign=top;spacingLeft=4;spacingRight=4;overflow=hidden;rotatable=0;points=[[0,0.5],[1,0.5]];portConstraint=eastwest;whiteSpace=wrap;html=1;" parent="QsSNJspytgetrYn3SfOf-27" vertex="1">
          <mxGeometry y="140" width="180" height="26" as="geometry" />
        </mxCell>
        <mxCell id="QsSNJspytgetrYn3SfOf-41" value="item" style="swimlane;fontStyle=1;align=center;verticalAlign=top;childLayout=stackLayout;horizontal=1;startSize=26;horizontalStack=0;resizeParent=1;resizeParentMax=0;resizeLast=0;collapsible=1;marginBottom=0;whiteSpace=wrap;html=1;" parent="WIyWlLk6GJQsqaUBKTNV-1" vertex="1">
          <mxGeometry x="360" y="740" width="160" height="296" as="geometry" />
        </mxCell>
        <mxCell id="QsSNJspytgetrYn3SfOf-42" value="- itemId: int" style="text;strokeColor=none;fillColor=none;align=left;verticalAlign=top;spacingLeft=4;spacingRight=4;overflow=hidden;rotatable=0;points=[[0,0.5],[1,0.5]];portConstraint=eastwest;whiteSpace=wrap;html=1;" parent="QsSNJspytgetrYn3SfOf-41" vertex="1">
          <mxGeometry y="26" width="160" height="26" as="geometry" />
        </mxCell>
        <mxCell id="QsSNJspytgetrYn3SfOf-43" value="- item_code: string" style="text;strokeColor=none;fillColor=none;align=left;verticalAlign=top;spacingLeft=4;spacingRight=4;overflow=hidden;rotatable=0;points=[[0,0.5],[1,0.5]];portConstraint=eastwest;whiteSpace=wrap;html=1;" parent="QsSNJspytgetrYn3SfOf-41" vertex="1">
          <mxGeometry y="52" width="160" height="26" as="geometry" />
        </mxCell>
        <mxCell id="QsSNJspytgetrYn3SfOf-44" value="- item_name: boolean" style="text;strokeColor=none;fillColor=none;align=left;verticalAlign=top;spacingLeft=4;spacingRight=4;overflow=hidden;rotatable=0;points=[[0,0.5],[1,0.5]];portConstraint=eastwest;whiteSpace=wrap;html=1;" parent="QsSNJspytgetrYn3SfOf-41" vertex="1">
          <mxGeometry y="78" width="160" height="26" as="geometry" />
        </mxCell>
        <mxCell id="QsSNJspytgetrYn3SfOf-45" value="- item_type: string" style="text;strokeColor=none;fillColor=none;align=left;verticalAlign=top;spacingLeft=4;spacingRight=4;overflow=hidden;rotatable=0;points=[[0,0.5],[1,0.5]];portConstraint=eastwest;whiteSpace=wrap;html=1;" parent="QsSNJspytgetrYn3SfOf-41" vertex="1">
          <mxGeometry y="104" width="160" height="26" as="geometry" />
        </mxCell>
        <mxCell id="QsSNJspytgetrYn3SfOf-52" value="- item_image_url: string" style="text;strokeColor=none;fillColor=none;align=left;verticalAlign=top;spacingLeft=4;spacingRight=4;overflow=hidden;rotatable=0;points=[[0,0.5],[1,0.5]];portConstraint=eastwest;whiteSpace=wrap;html=1;" parent="QsSNJspytgetrYn3SfOf-41" vertex="1">
          <mxGeometry y="130" width="160" height="26" as="geometry" />
        </mxCell>
        <mxCell id="QsSNJspytgetrYn3SfOf-46" value="" style="line;strokeWidth=1;fillColor=none;align=left;verticalAlign=middle;spacingTop=-1;spacingLeft=3;spacingRight=3;rotatable=0;labelPosition=right;points=[];portConstraint=eastwest;strokeColor=inherit;" parent="QsSNJspytgetrYn3SfOf-41" vertex="1">
          <mxGeometry y="156" width="160" height="8" as="geometry" />
        </mxCell>
        <mxCell id="QsSNJspytgetrYn3SfOf-47" value="+ createItem()" style="text;strokeColor=none;fillColor=none;align=left;verticalAlign=top;spacingLeft=4;spacingRight=4;overflow=hidden;rotatable=0;points=[[0,0.5],[1,0.5]];portConstraint=eastwest;whiteSpace=wrap;html=1;" parent="QsSNJspytgetrYn3SfOf-41" vertex="1">
          <mxGeometry y="164" width="160" height="28" as="geometry" />
        </mxCell>
        <mxCell id="QsSNJspytgetrYn3SfOf-48" value="+ updateitem()" style="text;strokeColor=none;fillColor=none;align=left;verticalAlign=top;spacingLeft=4;spacingRight=4;overflow=hidden;rotatable=0;points=[[0,0.5],[1,0.5]];portConstraint=eastwest;whiteSpace=wrap;html=1;" parent="QsSNJspytgetrYn3SfOf-41" vertex="1">
          <mxGeometry y="192" width="160" height="26" as="geometry" />
        </mxCell>
        <mxCell id="QsSNJspytgetrYn3SfOf-49" value="+ deleteItem()" style="text;strokeColor=none;fillColor=none;align=left;verticalAlign=top;spacingLeft=4;spacingRight=4;overflow=hidden;rotatable=0;points=[[0,0.5],[1,0.5]];portConstraint=eastwest;whiteSpace=wrap;html=1;" parent="QsSNJspytgetrYn3SfOf-41" vertex="1">
          <mxGeometry y="218" width="160" height="26" as="geometry" />
        </mxCell>
        <mxCell id="QsSNJspytgetrYn3SfOf-50" value="+ getItem()" style="text;strokeColor=none;fillColor=none;align=left;verticalAlign=top;spacingLeft=4;spacingRight=4;overflow=hidden;rotatable=0;points=[[0,0.5],[1,0.5]];portConstraint=eastwest;whiteSpace=wrap;html=1;" parent="QsSNJspytgetrYn3SfOf-41" vertex="1">
          <mxGeometry y="244" width="160" height="26" as="geometry" />
        </mxCell>
        <mxCell id="QsSNJspytgetrYn3SfOf-51" value="+ getItems()" style="text;strokeColor=none;fillColor=none;align=left;verticalAlign=top;spacingLeft=4;spacingRight=4;overflow=hidden;rotatable=0;points=[[0,0.5],[1,0.5]];portConstraint=eastwest;whiteSpace=wrap;html=1;" parent="QsSNJspytgetrYn3SfOf-41" vertex="1">
          <mxGeometry y="270" width="160" height="26" as="geometry" />
        </mxCell>
        <mxCell id="QsSNJspytgetrYn3SfOf-53" value="customer" style="swimlane;fontStyle=1;align=center;verticalAlign=top;childLayout=stackLayout;horizontal=1;startSize=26;horizontalStack=0;resizeParent=1;resizeParentMax=0;resizeLast=0;collapsible=1;marginBottom=0;whiteSpace=wrap;html=1;" parent="WIyWlLk6GJQsqaUBKTNV-1" vertex="1">
          <mxGeometry x="360" y="380" width="160" height="322" as="geometry" />
        </mxCell>
        <mxCell id="QsSNJspytgetrYn3SfOf-54" value="- customerId: int" style="text;strokeColor=none;fillColor=none;align=left;verticalAlign=top;spacingLeft=4;spacingRight=4;overflow=hidden;rotatable=0;points=[[0,0.5],[1,0.5]];portConstraint=eastwest;whiteSpace=wrap;html=1;" parent="QsSNJspytgetrYn3SfOf-53" vertex="1">
          <mxGeometry y="26" width="160" height="26" as="geometry" />
        </mxCell>
        <mxCell id="QsSNJspytgetrYn3SfOf-55" value="- name: string" style="text;strokeColor=none;fillColor=none;align=left;verticalAlign=top;spacingLeft=4;spacingRight=4;overflow=hidden;rotatable=0;points=[[0,0.5],[1,0.5]];portConstraint=eastwest;whiteSpace=wrap;html=1;" parent="QsSNJspytgetrYn3SfOf-53" vertex="1">
          <mxGeometry y="52" width="160" height="26" as="geometry" />
        </mxCell>
        <mxCell id="QsSNJspytgetrYn3SfOf-56" value="- mobile_num1: string" style="text;strokeColor=none;fillColor=none;align=left;verticalAlign=top;spacingLeft=4;spacingRight=4;overflow=hidden;rotatable=0;points=[[0,0.5],[1,0.5]];portConstraint=eastwest;whiteSpace=wrap;html=1;" parent="QsSNJspytgetrYn3SfOf-53" vertex="1">
          <mxGeometry y="78" width="160" height="26" as="geometry" />
        </mxCell>
        <mxCell id="QsSNJspytgetrYn3SfOf-57" value="- mobile_num2: string" style="text;strokeColor=none;fillColor=none;align=left;verticalAlign=top;spacingLeft=4;spacingRight=4;overflow=hidden;rotatable=0;points=[[0,0.5],[1,0.5]];portConstraint=eastwest;whiteSpace=wrap;html=1;" parent="QsSNJspytgetrYn3SfOf-53" vertex="1">
          <mxGeometry y="104" width="160" height="26" as="geometry" />
        </mxCell>
        <mxCell id="QsSNJspytgetrYn3SfOf-58" value="- address: string" style="text;strokeColor=none;fillColor=none;align=left;verticalAlign=top;spacingLeft=4;spacingRight=4;overflow=hidden;rotatable=0;points=[[0,0.5],[1,0.5]];portConstraint=eastwest;whiteSpace=wrap;html=1;" parent="QsSNJspytgetrYn3SfOf-53" vertex="1">
          <mxGeometry y="130" width="160" height="26" as="geometry" />
        </mxCell>
        <mxCell id="QsSNJspytgetrYn3SfOf-65" value="- password: string" style="text;strokeColor=none;fillColor=none;align=left;verticalAlign=top;spacingLeft=4;spacingRight=4;overflow=hidden;rotatable=0;points=[[0,0.5],[1,0.5]];portConstraint=eastwest;whiteSpace=wrap;html=1;" parent="QsSNJspytgetrYn3SfOf-53" vertex="1">
          <mxGeometry y="156" width="160" height="26" as="geometry" />
        </mxCell>
        <mxCell id="QsSNJspytgetrYn3SfOf-59" value="" style="line;strokeWidth=1;fillColor=none;align=left;verticalAlign=middle;spacingTop=-1;spacingLeft=3;spacingRight=3;rotatable=0;labelPosition=right;points=[];portConstraint=eastwest;strokeColor=inherit;" parent="QsSNJspytgetrYn3SfOf-53" vertex="1">
          <mxGeometry y="182" width="160" height="8" as="geometry" />
        </mxCell>
        <mxCell id="QsSNJspytgetrYn3SfOf-60" value="+ createICustomer()" style="text;strokeColor=none;fillColor=none;align=left;verticalAlign=top;spacingLeft=4;spacingRight=4;overflow=hidden;rotatable=0;points=[[0,0.5],[1,0.5]];portConstraint=eastwest;whiteSpace=wrap;html=1;" parent="QsSNJspytgetrYn3SfOf-53" vertex="1">
          <mxGeometry y="190" width="160" height="28" as="geometry" />
        </mxCell>
        <mxCell id="QsSNJspytgetrYn3SfOf-61" value="+ updateiCustomer()" style="text;strokeColor=none;fillColor=none;align=left;verticalAlign=top;spacingLeft=4;spacingRight=4;overflow=hidden;rotatable=0;points=[[0,0.5],[1,0.5]];portConstraint=eastwest;whiteSpace=wrap;html=1;" parent="QsSNJspytgetrYn3SfOf-53" vertex="1">
          <mxGeometry y="218" width="160" height="26" as="geometry" />
        </mxCell>
        <mxCell id="QsSNJspytgetrYn3SfOf-62" value="+ deleteCustomer()" style="text;strokeColor=none;fillColor=none;align=left;verticalAlign=top;spacingLeft=4;spacingRight=4;overflow=hidden;rotatable=0;points=[[0,0.5],[1,0.5]];portConstraint=eastwest;whiteSpace=wrap;html=1;" parent="QsSNJspytgetrYn3SfOf-53" vertex="1">
          <mxGeometry y="244" width="160" height="26" as="geometry" />
        </mxCell>
        <mxCell id="QsSNJspytgetrYn3SfOf-63" value="+ getICustomer()" style="text;strokeColor=none;fillColor=none;align=left;verticalAlign=top;spacingLeft=4;spacingRight=4;overflow=hidden;rotatable=0;points=[[0,0.5],[1,0.5]];portConstraint=eastwest;whiteSpace=wrap;html=1;" parent="QsSNJspytgetrYn3SfOf-53" vertex="1">
          <mxGeometry y="270" width="160" height="26" as="geometry" />
        </mxCell>
        <mxCell id="QsSNJspytgetrYn3SfOf-64" value="+ getCustomers()" style="text;strokeColor=none;fillColor=none;align=left;verticalAlign=top;spacingLeft=4;spacingRight=4;overflow=hidden;rotatable=0;points=[[0,0.5],[1,0.5]];portConstraint=eastwest;whiteSpace=wrap;html=1;" parent="QsSNJspytgetrYn3SfOf-53" vertex="1">
          <mxGeometry y="296" width="160" height="26" as="geometry" />
        </mxCell>
        <mxCell id="QsSNJspytgetrYn3SfOf-66" value="note" style="swimlane;fontStyle=1;align=center;verticalAlign=top;childLayout=stackLayout;horizontal=1;startSize=26;horizontalStack=0;resizeParent=1;resizeParentMax=0;resizeLast=0;collapsible=1;marginBottom=0;whiteSpace=wrap;html=1;" parent="WIyWlLk6GJQsqaUBKTNV-1" vertex="1">
          <mxGeometry x="640" y="850" width="270" height="244" as="geometry" />
        </mxCell>
        <mxCell id="QsSNJspytgetrYn3SfOf-67" value="- noteId: int" style="text;strokeColor=none;fillColor=none;align=left;verticalAlign=top;spacingLeft=4;spacingRight=4;overflow=hidden;rotatable=0;points=[[0,0.5],[1,0.5]];portConstraint=eastwest;whiteSpace=wrap;html=1;" parent="QsSNJspytgetrYn3SfOf-66" vertex="1">
          <mxGeometry y="26" width="270" height="26" as="geometry" />
        </mxCell>
        <mxCell id="QsSNJspytgetrYn3SfOf-68" value="- note: string" style="text;strokeColor=none;fillColor=none;align=left;verticalAlign=top;spacingLeft=4;spacingRight=4;overflow=hidden;rotatable=0;points=[[0,0.5],[1,0.5]];portConstraint=eastwest;whiteSpace=wrap;html=1;" parent="QsSNJspytgetrYn3SfOf-66" vertex="1">
          <mxGeometry y="52" width="270" height="26" as="geometry" />
        </mxCell>
        <mxCell id="QsSNJspytgetrYn3SfOf-69" value="- status: boolean" style="text;strokeColor=none;fillColor=none;align=left;verticalAlign=top;spacingLeft=4;spacingRight=4;overflow=hidden;rotatable=0;points=[[0,0.5],[1,0.5]];portConstraint=eastwest;whiteSpace=wrap;html=1;" parent="QsSNJspytgetrYn3SfOf-66" vertex="1">
          <mxGeometry y="78" width="270" height="26" as="geometry" />
        </mxCell>
        <mxCell id="QsSNJspytgetrYn3SfOf-72" value="" style="line;strokeWidth=1;fillColor=none;align=left;verticalAlign=middle;spacingTop=-1;spacingLeft=3;spacingRight=3;rotatable=0;labelPosition=right;points=[];portConstraint=eastwest;strokeColor=inherit;" parent="QsSNJspytgetrYn3SfOf-66" vertex="1">
          <mxGeometry y="104" width="270" height="8" as="geometry" />
        </mxCell>
        <mxCell id="QsSNJspytgetrYn3SfOf-73" value="+ createNote()" style="text;strokeColor=none;fillColor=none;align=left;verticalAlign=top;spacingLeft=4;spacingRight=4;overflow=hidden;rotatable=0;points=[[0,0.5],[1,0.5]];portConstraint=eastwest;whiteSpace=wrap;html=1;" parent="QsSNJspytgetrYn3SfOf-66" vertex="1">
          <mxGeometry y="112" width="270" height="28" as="geometry" />
        </mxCell>
        <mxCell id="QsSNJspytgetrYn3SfOf-74" value="+ updateNote()" style="text;strokeColor=none;fillColor=none;align=left;verticalAlign=top;spacingLeft=4;spacingRight=4;overflow=hidden;rotatable=0;points=[[0,0.5],[1,0.5]];portConstraint=eastwest;whiteSpace=wrap;html=1;" parent="QsSNJspytgetrYn3SfOf-66" vertex="1">
          <mxGeometry y="140" width="270" height="26" as="geometry" />
        </mxCell>
        <mxCell id="QsSNJspytgetrYn3SfOf-75" value="+ deleteNote()" style="text;strokeColor=none;fillColor=none;align=left;verticalAlign=top;spacingLeft=4;spacingRight=4;overflow=hidden;rotatable=0;points=[[0,0.5],[1,0.5]];portConstraint=eastwest;whiteSpace=wrap;html=1;" parent="QsSNJspytgetrYn3SfOf-66" vertex="1">
          <mxGeometry y="166" width="270" height="26" as="geometry" />
        </mxCell>
        <mxCell id="QsSNJspytgetrYn3SfOf-76" value="+ getNote()" style="text;strokeColor=none;fillColor=none;align=left;verticalAlign=top;spacingLeft=4;spacingRight=4;overflow=hidden;rotatable=0;points=[[0,0.5],[1,0.5]];portConstraint=eastwest;whiteSpace=wrap;html=1;" parent="QsSNJspytgetrYn3SfOf-66" vertex="1">
          <mxGeometry y="192" width="270" height="26" as="geometry" />
        </mxCell>
        <mxCell id="QsSNJspytgetrYn3SfOf-77" value="+ getNotes()" style="text;strokeColor=none;fillColor=none;align=left;verticalAlign=top;spacingLeft=4;spacingRight=4;overflow=hidden;rotatable=0;points=[[0,0.5],[1,0.5]];portConstraint=eastwest;whiteSpace=wrap;html=1;" parent="QsSNJspytgetrYn3SfOf-66" vertex="1">
          <mxGeometry y="218" width="270" height="26" as="geometry" />
        </mxCell>
        <mxCell id="QsSNJspytgetrYn3SfOf-78" value="dressSelection" style="swimlane;fontStyle=1;align=center;verticalAlign=top;childLayout=stackLayout;horizontal=1;startSize=26;horizontalStack=0;resizeParent=1;resizeParentMax=0;resizeLast=0;collapsible=1;marginBottom=0;whiteSpace=wrap;html=1;" parent="WIyWlLk6GJQsqaUBKTNV-1" vertex="1">
          <mxGeometry x="640" y="80" width="270" height="192" as="geometry" />
        </mxCell>
        <mxCell id="QsSNJspytgetrYn3SfOf-79" value="- dress_id: int" style="text;strokeColor=none;fillColor=none;align=left;verticalAlign=top;spacingLeft=4;spacingRight=4;overflow=hidden;rotatable=0;points=[[0,0.5],[1,0.5]];portConstraint=eastwest;whiteSpace=wrap;html=1;" parent="QsSNJspytgetrYn3SfOf-78" vertex="1">
          <mxGeometry y="26" width="270" height="26" as="geometry" />
        </mxCell>
        <mxCell id="QsSNJspytgetrYn3SfOf-80" value="- status: boolean" style="text;strokeColor=none;fillColor=none;align=left;verticalAlign=top;spacingLeft=4;spacingRight=4;overflow=hidden;rotatable=0;points=[[0,0.5],[1,0.5]];portConstraint=eastwest;whiteSpace=wrap;html=1;" parent="QsSNJspytgetrYn3SfOf-78" vertex="1">
          <mxGeometry y="52" width="270" height="26" as="geometry" />
        </mxCell>
        <mxCell id="QsSNJspytgetrYn3SfOf-83" value="" style="line;strokeWidth=1;fillColor=none;align=left;verticalAlign=middle;spacingTop=-1;spacingLeft=3;spacingRight=3;rotatable=0;labelPosition=right;points=[];portConstraint=eastwest;strokeColor=inherit;" parent="QsSNJspytgetrYn3SfOf-78" vertex="1">
          <mxGeometry y="78" width="270" height="8" as="geometry" />
        </mxCell>
        <mxCell id="QsSNJspytgetrYn3SfOf-84" value="+ createDressSelection()" style="text;strokeColor=none;fillColor=none;align=left;verticalAlign=top;spacingLeft=4;spacingRight=4;overflow=hidden;rotatable=0;points=[[0,0.5],[1,0.5]];portConstraint=eastwest;whiteSpace=wrap;html=1;" parent="QsSNJspytgetrYn3SfOf-78" vertex="1">
          <mxGeometry y="86" width="270" height="28" as="geometry" />
        </mxCell>
        <mxCell id="QsSNJspytgetrYn3SfOf-85" value="+ updateDressSelection()" style="text;strokeColor=none;fillColor=none;align=left;verticalAlign=top;spacingLeft=4;spacingRight=4;overflow=hidden;rotatable=0;points=[[0,0.5],[1,0.5]];portConstraint=eastwest;whiteSpace=wrap;html=1;" parent="QsSNJspytgetrYn3SfOf-78" vertex="1">
          <mxGeometry y="114" width="270" height="26" as="geometry" />
        </mxCell>
        <mxCell id="QsSNJspytgetrYn3SfOf-86" value="+ deleteDressSelection()" style="text;strokeColor=none;fillColor=none;align=left;verticalAlign=top;spacingLeft=4;spacingRight=4;overflow=hidden;rotatable=0;points=[[0,0.5],[1,0.5]];portConstraint=eastwest;whiteSpace=wrap;html=1;" parent="QsSNJspytgetrYn3SfOf-78" vertex="1">
          <mxGeometry y="140" width="270" height="26" as="geometry" />
        </mxCell>
        <mxCell id="QsSNJspytgetrYn3SfOf-87" value="+ getdDressSelection()" style="text;strokeColor=none;fillColor=none;align=left;verticalAlign=top;spacingLeft=4;spacingRight=4;overflow=hidden;rotatable=0;points=[[0,0.5],[1,0.5]];portConstraint=eastwest;whiteSpace=wrap;html=1;" parent="QsSNJspytgetrYn3SfOf-78" vertex="1">
          <mxGeometry y="166" width="270" height="26" as="geometry" />
        </mxCell>
        <mxCell id="QsSNJspytgetrYn3SfOf-89" value="reservation" style="swimlane;fontStyle=1;align=center;verticalAlign=top;childLayout=stackLayout;horizontal=1;startSize=26;horizontalStack=0;resizeParent=1;resizeParentMax=0;resizeLast=0;collapsible=1;marginBottom=0;whiteSpace=wrap;html=1;" parent="WIyWlLk6GJQsqaUBKTNV-1" vertex="1">
          <mxGeometry x="640" y="370" width="270" height="400" as="geometry" />
        </mxCell>
        <mxCell id="QsSNJspytgetrYn3SfOf-90" value="- reservation_id: int" style="text;strokeColor=none;fillColor=none;align=left;verticalAlign=top;spacingLeft=4;spacingRight=4;overflow=hidden;rotatable=0;points=[[0,0.5],[1,0.5]];portConstraint=eastwest;whiteSpace=wrap;html=1;" parent="QsSNJspytgetrYn3SfOf-89" vertex="1">
          <mxGeometry y="26" width="270" height="26" as="geometry" />
        </mxCell>
        <mxCell id="QsSNJspytgetrYn3SfOf-91" value="- function_date: date" style="text;strokeColor=none;fillColor=none;align=left;verticalAlign=top;spacingLeft=4;spacingRight=4;overflow=hidden;rotatable=0;points=[[0,0.5],[1,0.5]];portConstraint=eastwest;whiteSpace=wrap;html=1;" parent="QsSNJspytgetrYn3SfOf-89" vertex="1">
          <mxGeometry y="52" width="270" height="26" as="geometry" />
        </mxCell>
        <mxCell id="QsSNJspytgetrYn3SfOf-97" value="- function_place: string" style="text;strokeColor=none;fillColor=none;align=left;verticalAlign=top;spacingLeft=4;spacingRight=4;overflow=hidden;rotatable=0;points=[[0,0.5],[1,0.5]];portConstraint=eastwest;whiteSpace=wrap;html=1;" parent="QsSNJspytgetrYn3SfOf-89" vertex="1">
          <mxGeometry y="78" width="270" height="26" as="geometry" />
        </mxCell>
        <mxCell id="QsSNJspytgetrYn3SfOf-98" value="- number_of_bestmen:int&amp;nbsp;" style="text;strokeColor=none;fillColor=none;align=left;verticalAlign=top;spacingLeft=4;spacingRight=4;overflow=hidden;rotatable=0;points=[[0,0.5],[1,0.5]];portConstraint=eastwest;whiteSpace=wrap;html=1;" parent="QsSNJspytgetrYn3SfOf-89" vertex="1">
          <mxGeometry y="104" width="270" height="26" as="geometry" />
        </mxCell>
        <mxCell id="QsSNJspytgetrYn3SfOf-100" value="- number_of_pageboys:int&amp;nbsp;" style="text;strokeColor=none;fillColor=none;align=left;verticalAlign=top;spacingLeft=4;spacingRight=4;overflow=hidden;rotatable=0;points=[[0,0.5],[1,0.5]];portConstraint=eastwest;whiteSpace=wrap;html=1;" parent="QsSNJspytgetrYn3SfOf-89" vertex="1">
          <mxGeometry y="130" width="270" height="26" as="geometry" />
        </mxCell>
        <mxCell id="QsSNJspytgetrYn3SfOf-101" value="- dressing_place:string&amp;nbsp;" style="text;strokeColor=none;fillColor=none;align=left;verticalAlign=top;spacingLeft=4;spacingRight=4;overflow=hidden;rotatable=0;points=[[0,0.5],[1,0.5]];portConstraint=eastwest;whiteSpace=wrap;html=1;" parent="QsSNJspytgetrYn3SfOf-89" vertex="1">
          <mxGeometry y="156" width="270" height="26" as="geometry" />
        </mxCell>
        <mxCell id="QsSNJspytgetrYn3SfOf-102" value="- status: boolean" style="text;strokeColor=none;fillColor=none;align=left;verticalAlign=top;spacingLeft=4;spacingRight=4;overflow=hidden;rotatable=0;points=[[0,0.5],[1,0.5]];portConstraint=eastwest;whiteSpace=wrap;html=1;" parent="QsSNJspytgetrYn3SfOf-89" vertex="1">
          <mxGeometry y="182" width="270" height="26" as="geometry" />
        </mxCell>
        <mxCell id="QsSNJspytgetrYn3SfOf-103" value="- goingaway_change_place:string&amp;nbsp;" style="text;strokeColor=none;fillColor=none;align=left;verticalAlign=top;spacingLeft=4;spacingRight=4;overflow=hidden;rotatable=0;points=[[0,0.5],[1,0.5]];portConstraint=eastwest;whiteSpace=wrap;html=1;" parent="QsSNJspytgetrYn3SfOf-89" vertex="1">
          <mxGeometry y="208" width="270" height="26" as="geometry" />
        </mxCell>
        <mxCell id="QsSNJspytgetrYn3SfOf-104" value="- measurement_date: date" style="text;strokeColor=none;fillColor=none;align=left;verticalAlign=top;spacingLeft=4;spacingRight=4;overflow=hidden;rotatable=0;points=[[0,0.5],[1,0.5]];portConstraint=eastwest;whiteSpace=wrap;html=1;" parent="QsSNJspytgetrYn3SfOf-89" vertex="1">
          <mxGeometry y="234" width="270" height="26" as="geometry" />
        </mxCell>
        <mxCell id="QsSNJspytgetrYn3SfOf-105" value="- status: boolean" style="text;strokeColor=none;fillColor=none;align=left;verticalAlign=top;spacingLeft=4;spacingRight=4;overflow=hidden;rotatable=0;points=[[0,0.5],[1,0.5]];portConstraint=eastwest;whiteSpace=wrap;html=1;" parent="QsSNJspytgetrYn3SfOf-89" vertex="1">
          <mxGeometry y="260" width="270" height="26" as="geometry" />
        </mxCell>
        <mxCell id="QsSNJspytgetrYn3SfOf-92" value="" style="line;strokeWidth=1;fillColor=none;align=left;verticalAlign=middle;spacingTop=-1;spacingLeft=3;spacingRight=3;rotatable=0;labelPosition=right;points=[];portConstraint=eastwest;strokeColor=inherit;" parent="QsSNJspytgetrYn3SfOf-89" vertex="1">
          <mxGeometry y="286" width="270" height="8" as="geometry" />
        </mxCell>
        <mxCell id="QsSNJspytgetrYn3SfOf-93" value="+ createDressSelection()" style="text;strokeColor=none;fillColor=none;align=left;verticalAlign=top;spacingLeft=4;spacingRight=4;overflow=hidden;rotatable=0;points=[[0,0.5],[1,0.5]];portConstraint=eastwest;whiteSpace=wrap;html=1;" parent="QsSNJspytgetrYn3SfOf-89" vertex="1">
          <mxGeometry y="294" width="270" height="28" as="geometry" />
        </mxCell>
        <mxCell id="QsSNJspytgetrYn3SfOf-94" value="+ updateDressSelection()" style="text;strokeColor=none;fillColor=none;align=left;verticalAlign=top;spacingLeft=4;spacingRight=4;overflow=hidden;rotatable=0;points=[[0,0.5],[1,0.5]];portConstraint=eastwest;whiteSpace=wrap;html=1;" parent="QsSNJspytgetrYn3SfOf-89" vertex="1">
          <mxGeometry y="322" width="270" height="26" as="geometry" />
        </mxCell>
        <mxCell id="QsSNJspytgetrYn3SfOf-95" value="+ deleteDressSelection()" style="text;strokeColor=none;fillColor=none;align=left;verticalAlign=top;spacingLeft=4;spacingRight=4;overflow=hidden;rotatable=0;points=[[0,0.5],[1,0.5]];portConstraint=eastwest;whiteSpace=wrap;html=1;" parent="QsSNJspytgetrYn3SfOf-89" vertex="1">
          <mxGeometry y="348" width="270" height="26" as="geometry" />
        </mxCell>
        <mxCell id="QsSNJspytgetrYn3SfOf-96" value="+ getdDressSelection()" style="text;strokeColor=none;fillColor=none;align=left;verticalAlign=top;spacingLeft=4;spacingRight=4;overflow=hidden;rotatable=0;points=[[0,0.5],[1,0.5]];portConstraint=eastwest;whiteSpace=wrap;html=1;" parent="QsSNJspytgetrYn3SfOf-89" vertex="1">
          <mxGeometry y="374" width="270" height="26" as="geometry" />
        </mxCell>
        <mxCell id="6hjw9s-Af62eJiDp_Xg_-0" value="measurement" style="swimlane;fontStyle=1;align=center;verticalAlign=top;childLayout=stackLayout;horizontal=1;startSize=26;horizontalStack=0;resizeParent=1;resizeParentMax=0;resizeLast=0;collapsible=1;marginBottom=0;whiteSpace=wrap;html=1;" parent="WIyWlLk6GJQsqaUBKTNV-1" vertex="1">
          <mxGeometry x="1040" y="80" width="180" height="374" as="geometry" />
        </mxCell>
        <mxCell id="6hjw9s-Af62eJiDp_Xg_-1" value="- measurement_id: int" style="text;strokeColor=none;fillColor=none;align=left;verticalAlign=top;spacingLeft=4;spacingRight=4;overflow=hidden;rotatable=0;points=[[0,0.5],[1,0.5]];portConstraint=eastwest;whiteSpace=wrap;html=1;" parent="6hjw9s-Af62eJiDp_Xg_-0" vertex="1">
          <mxGeometry y="26" width="180" height="26" as="geometry" />
        </mxCell>
        <mxCell id="6hjw9s-Af62eJiDp_Xg_-2" value="- type : string" style="text;strokeColor=none;fillColor=none;align=left;verticalAlign=top;spacingLeft=4;spacingRight=4;overflow=hidden;rotatable=0;points=[[0,0.5],[1,0.5]];portConstraint=eastwest;whiteSpace=wrap;html=1;" parent="6hjw9s-Af62eJiDp_Xg_-0" vertex="1">
          <mxGeometry y="52" width="180" height="26" as="geometry" />
        </mxCell>
        <mxCell id="6hjw9s-Af62eJiDp_Xg_-8" value="- shoulder-double" style="text;strokeColor=none;fillColor=none;align=left;verticalAlign=top;spacingLeft=4;spacingRight=4;overflow=hidden;rotatable=0;points=[[0,0.5],[1,0.5]];portConstraint=eastwest;whiteSpace=wrap;html=1;" parent="6hjw9s-Af62eJiDp_Xg_-0" vertex="1">
          <mxGeometry y="78" width="180" height="26" as="geometry" />
        </mxCell>
        <mxCell id="6hjw9s-Af62eJiDp_Xg_-9" value="- chest-double" style="text;strokeColor=none;fillColor=none;align=left;verticalAlign=top;spacingLeft=4;spacingRight=4;overflow=hidden;rotatable=0;points=[[0,0.5],[1,0.5]];portConstraint=eastwest;whiteSpace=wrap;html=1;" parent="6hjw9s-Af62eJiDp_Xg_-0" vertex="1">
          <mxGeometry y="104" width="180" height="26" as="geometry" />
        </mxCell>
        <mxCell id="6hjw9s-Af62eJiDp_Xg_-10" value="- weist-double" style="text;strokeColor=none;fillColor=none;align=left;verticalAlign=top;spacingLeft=4;spacingRight=4;overflow=hidden;rotatable=0;points=[[0,0.5],[1,0.5]];portConstraint=eastwest;whiteSpace=wrap;html=1;" parent="6hjw9s-Af62eJiDp_Xg_-0" vertex="1">
          <mxGeometry y="130" width="180" height="26" as="geometry" />
        </mxCell>
        <mxCell id="6hjw9s-Af62eJiDp_Xg_-11" value="- length-double" style="text;strokeColor=none;fillColor=none;align=left;verticalAlign=top;spacingLeft=4;spacingRight=4;overflow=hidden;rotatable=0;points=[[0,0.5],[1,0.5]];portConstraint=eastwest;whiteSpace=wrap;html=1;" parent="6hjw9s-Af62eJiDp_Xg_-0" vertex="1">
          <mxGeometry y="156" width="180" height="26" as="geometry" />
        </mxCell>
        <mxCell id="6hjw9s-Af62eJiDp_Xg_-12" value="- size-double" style="text;strokeColor=none;fillColor=none;align=left;verticalAlign=top;spacingLeft=4;spacingRight=4;overflow=hidden;rotatable=0;points=[[0,0.5],[1,0.5]];portConstraint=eastwest;whiteSpace=wrap;html=1;" parent="6hjw9s-Af62eJiDp_Xg_-0" vertex="1">
          <mxGeometry y="182" width="180" height="26" as="geometry" />
        </mxCell>
        <mxCell id="6hjw9s-Af62eJiDp_Xg_-14" value="- height-double" style="text;strokeColor=none;fillColor=none;align=left;verticalAlign=top;spacingLeft=4;spacingRight=4;overflow=hidden;rotatable=0;points=[[0,0.5],[1,0.5]];portConstraint=eastwest;whiteSpace=wrap;html=1;" parent="6hjw9s-Af62eJiDp_Xg_-0" vertex="1">
          <mxGeometry y="208" width="180" height="26" as="geometry" />
        </mxCell>
        <mxCell id="6hjw9s-Af62eJiDp_Xg_-13" value="- arm-double" style="text;strokeColor=none;fillColor=none;align=left;verticalAlign=top;spacingLeft=4;spacingRight=4;overflow=hidden;rotatable=0;points=[[0,0.5],[1,0.5]];portConstraint=eastwest;whiteSpace=wrap;html=1;" parent="6hjw9s-Af62eJiDp_Xg_-0" vertex="1">
          <mxGeometry y="234" width="180" height="26" as="geometry" />
        </mxCell>
        <mxCell id="6hjw9s-Af62eJiDp_Xg_-3" value="" style="line;strokeWidth=1;fillColor=none;align=left;verticalAlign=middle;spacingTop=-1;spacingLeft=3;spacingRight=3;rotatable=0;labelPosition=right;points=[];portConstraint=eastwest;strokeColor=inherit;" parent="6hjw9s-Af62eJiDp_Xg_-0" vertex="1">
          <mxGeometry y="260" width="180" height="8" as="geometry" />
        </mxCell>
        <mxCell id="6hjw9s-Af62eJiDp_Xg_-4" value="+ createmeasurement()" style="text;strokeColor=none;fillColor=none;align=left;verticalAlign=top;spacingLeft=4;spacingRight=4;overflow=hidden;rotatable=0;points=[[0,0.5],[1,0.5]];portConstraint=eastwest;whiteSpace=wrap;html=1;" parent="6hjw9s-Af62eJiDp_Xg_-0" vertex="1">
          <mxGeometry y="268" width="180" height="28" as="geometry" />
        </mxCell>
        <mxCell id="6hjw9s-Af62eJiDp_Xg_-5" value="+ updatemeasurement()" style="text;strokeColor=none;fillColor=none;align=left;verticalAlign=top;spacingLeft=4;spacingRight=4;overflow=hidden;rotatable=0;points=[[0,0.5],[1,0.5]];portConstraint=eastwest;whiteSpace=wrap;html=1;" parent="6hjw9s-Af62eJiDp_Xg_-0" vertex="1">
          <mxGeometry y="296" width="180" height="26" as="geometry" />
        </mxCell>
        <mxCell id="6hjw9s-Af62eJiDp_Xg_-6" value="+ deletemeasurement()" style="text;strokeColor=none;fillColor=none;align=left;verticalAlign=top;spacingLeft=4;spacingRight=4;overflow=hidden;rotatable=0;points=[[0,0.5],[1,0.5]];portConstraint=eastwest;whiteSpace=wrap;html=1;" parent="6hjw9s-Af62eJiDp_Xg_-0" vertex="1">
          <mxGeometry y="322" width="180" height="26" as="geometry" />
        </mxCell>
        <mxCell id="6hjw9s-Af62eJiDp_Xg_-7" value="+ getmeasurement()" style="text;strokeColor=none;fillColor=none;align=left;verticalAlign=top;spacingLeft=4;spacingRight=4;overflow=hidden;rotatable=0;points=[[0,0.5],[1,0.5]];portConstraint=eastwest;whiteSpace=wrap;html=1;" parent="6hjw9s-Af62eJiDp_Xg_-0" vertex="1">
          <mxGeometry y="348" width="180" height="26" as="geometry" />
        </mxCell>
        <mxCell id="6hjw9s-Af62eJiDp_Xg_-15" value="cost" style="swimlane;fontStyle=1;align=center;verticalAlign=top;childLayout=stackLayout;horizontal=1;startSize=26;horizontalStack=0;resizeParent=1;resizeParentMax=0;resizeLast=0;collapsible=1;marginBottom=0;whiteSpace=wrap;html=1;" parent="WIyWlLk6GJQsqaUBKTNV-1" vertex="1">
          <mxGeometry x="1040" y="480" width="180" height="270" as="geometry" />
        </mxCell>
        <mxCell id="6hjw9s-Af62eJiDp_Xg_-33" value="- cost_id: int" style="text;strokeColor=none;fillColor=none;align=left;verticalAlign=top;spacingLeft=4;spacingRight=4;overflow=hidden;rotatable=0;points=[[0,0.5],[1,0.5]];portConstraint=eastwest;whiteSpace=wrap;html=1;" parent="6hjw9s-Af62eJiDp_Xg_-15" vertex="1">
          <mxGeometry y="26" width="180" height="26" as="geometry" />
        </mxCell>
        <mxCell id="6hjw9s-Af62eJiDp_Xg_-16" value="- transport: double" style="text;strokeColor=none;fillColor=none;align=left;verticalAlign=top;spacingLeft=4;spacingRight=4;overflow=hidden;rotatable=0;points=[[0,0.5],[1,0.5]];portConstraint=eastwest;whiteSpace=wrap;html=1;" parent="6hjw9s-Af62eJiDp_Xg_-15" vertex="1">
          <mxGeometry y="52" width="180" height="26" as="geometry" />
        </mxCell>
        <mxCell id="6hjw9s-Af62eJiDp_Xg_-17" value="- salary: double" style="text;strokeColor=none;fillColor=none;align=left;verticalAlign=top;spacingLeft=4;spacingRight=4;overflow=hidden;rotatable=0;points=[[0,0.5],[1,0.5]];portConstraint=eastwest;whiteSpace=wrap;html=1;" parent="6hjw9s-Af62eJiDp_Xg_-15" vertex="1">
          <mxGeometry y="78" width="180" height="26" as="geometry" />
        </mxCell>
        <mxCell id="6hjw9s-Af62eJiDp_Xg_-32" value="- depreciation: boolean" style="text;strokeColor=none;fillColor=none;align=left;verticalAlign=top;spacingLeft=4;spacingRight=4;overflow=hidden;rotatable=0;points=[[0,0.5],[1,0.5]];portConstraint=eastwest;whiteSpace=wrap;html=1;" parent="6hjw9s-Af62eJiDp_Xg_-15" vertex="1">
          <mxGeometry y="104" width="180" height="26" as="geometry" />
        </mxCell>
        <mxCell id="6hjw9s-Af62eJiDp_Xg_-31" value="- cleaning: double" style="text;strokeColor=none;fillColor=none;align=left;verticalAlign=top;spacingLeft=4;spacingRight=4;overflow=hidden;rotatable=0;points=[[0,0.5],[1,0.5]];portConstraint=eastwest;whiteSpace=wrap;html=1;" parent="6hjw9s-Af62eJiDp_Xg_-15" vertex="1">
          <mxGeometry y="130" width="180" height="26" as="geometry" />
        </mxCell>
        <mxCell id="6hjw9s-Af62eJiDp_Xg_-18" value="" style="line;strokeWidth=1;fillColor=none;align=left;verticalAlign=middle;spacingTop=-1;spacingLeft=3;spacingRight=3;rotatable=0;labelPosition=right;points=[];portConstraint=eastwest;strokeColor=inherit;" parent="6hjw9s-Af62eJiDp_Xg_-15" vertex="1">
          <mxGeometry y="156" width="180" height="8" as="geometry" />
        </mxCell>
        <mxCell id="6hjw9s-Af62eJiDp_Xg_-19" value="+ createCost()" style="text;strokeColor=none;fillColor=none;align=left;verticalAlign=top;spacingLeft=4;spacingRight=4;overflow=hidden;rotatable=0;points=[[0,0.5],[1,0.5]];portConstraint=eastwest;whiteSpace=wrap;html=1;" parent="6hjw9s-Af62eJiDp_Xg_-15" vertex="1">
          <mxGeometry y="164" width="180" height="28" as="geometry" />
        </mxCell>
        <mxCell id="6hjw9s-Af62eJiDp_Xg_-20" value="+ updateCost()" style="text;strokeColor=none;fillColor=none;align=left;verticalAlign=top;spacingLeft=4;spacingRight=4;overflow=hidden;rotatable=0;points=[[0,0.5],[1,0.5]];portConstraint=eastwest;whiteSpace=wrap;html=1;" parent="6hjw9s-Af62eJiDp_Xg_-15" vertex="1">
          <mxGeometry y="192" width="180" height="26" as="geometry" />
        </mxCell>
        <mxCell id="6hjw9s-Af62eJiDp_Xg_-21" value="+ deleteCost()" style="text;strokeColor=none;fillColor=none;align=left;verticalAlign=top;spacingLeft=4;spacingRight=4;overflow=hidden;rotatable=0;points=[[0,0.5],[1,0.5]];portConstraint=eastwest;whiteSpace=wrap;html=1;" parent="6hjw9s-Af62eJiDp_Xg_-15" vertex="1">
          <mxGeometry y="218" width="180" height="26" as="geometry" />
        </mxCell>
        <mxCell id="6hjw9s-Af62eJiDp_Xg_-22" value="+ getdCost()" style="text;strokeColor=none;fillColor=none;align=left;verticalAlign=top;spacingLeft=4;spacingRight=4;overflow=hidden;rotatable=0;points=[[0,0.5],[1,0.5]];portConstraint=eastwest;whiteSpace=wrap;html=1;" parent="6hjw9s-Af62eJiDp_Xg_-15" vertex="1">
          <mxGeometry y="244" width="180" height="26" as="geometry" />
        </mxCell>
        <mxCell id="6hjw9s-Af62eJiDp_Xg_-23" value="interimPayment" style="swimlane;fontStyle=1;align=center;verticalAlign=top;childLayout=stackLayout;horizontal=1;startSize=26;horizontalStack=0;resizeParent=1;resizeParentMax=0;resizeLast=0;collapsible=1;marginBottom=0;whiteSpace=wrap;html=1;" parent="WIyWlLk6GJQsqaUBKTNV-1" vertex="1">
          <mxGeometry x="1040" y="780" width="180" height="192" as="geometry" />
        </mxCell>
        <mxCell id="6hjw9s-Af62eJiDp_Xg_-24" value="- interimPayment_id: int" style="text;strokeColor=none;fillColor=none;align=left;verticalAlign=top;spacingLeft=4;spacingRight=4;overflow=hidden;rotatable=0;points=[[0,0.5],[1,0.5]];portConstraint=eastwest;whiteSpace=wrap;html=1;" parent="6hjw9s-Af62eJiDp_Xg_-23" vertex="1">
          <mxGeometry y="26" width="180" height="26" as="geometry" />
        </mxCell>
        <mxCell id="6hjw9s-Af62eJiDp_Xg_-25" value="- interim_payment: double" style="text;strokeColor=none;fillColor=none;align=left;verticalAlign=top;spacingLeft=4;spacingRight=4;overflow=hidden;rotatable=0;points=[[0,0.5],[1,0.5]];portConstraint=eastwest;whiteSpace=wrap;html=1;" parent="6hjw9s-Af62eJiDp_Xg_-23" vertex="1">
          <mxGeometry y="52" width="180" height="26" as="geometry" />
        </mxCell>
        <mxCell id="6hjw9s-Af62eJiDp_Xg_-26" value="" style="line;strokeWidth=1;fillColor=none;align=left;verticalAlign=middle;spacingTop=-1;spacingLeft=3;spacingRight=3;rotatable=0;labelPosition=right;points=[];portConstraint=eastwest;strokeColor=inherit;" parent="6hjw9s-Af62eJiDp_Xg_-23" vertex="1">
          <mxGeometry y="78" width="180" height="8" as="geometry" />
        </mxCell>
        <mxCell id="6hjw9s-Af62eJiDp_Xg_-27" value="+ createInterimPayment()" style="text;strokeColor=none;fillColor=none;align=left;verticalAlign=top;spacingLeft=4;spacingRight=4;overflow=hidden;rotatable=0;points=[[0,0.5],[1,0.5]];portConstraint=eastwest;whiteSpace=wrap;html=1;" parent="6hjw9s-Af62eJiDp_Xg_-23" vertex="1">
          <mxGeometry y="86" width="180" height="28" as="geometry" />
        </mxCell>
        <mxCell id="6hjw9s-Af62eJiDp_Xg_-28" value="+ updateInterimPayment()" style="text;strokeColor=none;fillColor=none;align=left;verticalAlign=top;spacingLeft=4;spacingRight=4;overflow=hidden;rotatable=0;points=[[0,0.5],[1,0.5]];portConstraint=eastwest;whiteSpace=wrap;html=1;" parent="6hjw9s-Af62eJiDp_Xg_-23" vertex="1">
          <mxGeometry y="114" width="180" height="26" as="geometry" />
        </mxCell>
        <mxCell id="6hjw9s-Af62eJiDp_Xg_-29" value="+ deleteInterimPayment()" style="text;strokeColor=none;fillColor=none;align=left;verticalAlign=top;spacingLeft=4;spacingRight=4;overflow=hidden;rotatable=0;points=[[0,0.5],[1,0.5]];portConstraint=eastwest;whiteSpace=wrap;html=1;" parent="6hjw9s-Af62eJiDp_Xg_-23" vertex="1">
          <mxGeometry y="140" width="180" height="26" as="geometry" />
        </mxCell>
        <mxCell id="6hjw9s-Af62eJiDp_Xg_-30" value="+ getInterimPayment()" style="text;strokeColor=none;fillColor=none;align=left;verticalAlign=top;spacingLeft=4;spacingRight=4;overflow=hidden;rotatable=0;points=[[0,0.5],[1,0.5]];portConstraint=eastwest;whiteSpace=wrap;html=1;" parent="6hjw9s-Af62eJiDp_Xg_-23" vertex="1">
          <mxGeometry y="166" width="180" height="26" as="geometry" />
        </mxCell>
        <mxCell id="6hjw9s-Af62eJiDp_Xg_-34" value="additionalPayment" style="swimlane;fontStyle=1;align=center;verticalAlign=top;childLayout=stackLayout;horizontal=1;startSize=26;horizontalStack=0;resizeParent=1;resizeParentMax=0;resizeLast=0;collapsible=1;marginBottom=0;whiteSpace=wrap;html=1;" parent="WIyWlLk6GJQsqaUBKTNV-1" vertex="1">
          <mxGeometry x="1040" y="1020" width="180" height="244" as="geometry" />
        </mxCell>
        <mxCell id="6hjw9s-Af62eJiDp_Xg_-35" value="- additionalPayment_id: int" style="text;strokeColor=none;fillColor=none;align=left;verticalAlign=top;spacingLeft=4;spacingRight=4;overflow=hidden;rotatable=0;points=[[0,0.5],[1,0.5]];portConstraint=eastwest;whiteSpace=wrap;html=1;" parent="6hjw9s-Af62eJiDp_Xg_-34" vertex="1">
          <mxGeometry y="26" width="180" height="26" as="geometry" />
        </mxCell>
        <mxCell id="6hjw9s-Af62eJiDp_Xg_-36" value="- payment: double" style="text;strokeColor=none;fillColor=none;align=left;verticalAlign=top;spacingLeft=4;spacingRight=4;overflow=hidden;rotatable=0;points=[[0,0.5],[1,0.5]];portConstraint=eastwest;whiteSpace=wrap;html=1;" parent="6hjw9s-Af62eJiDp_Xg_-34" vertex="1">
          <mxGeometry y="52" width="180" height="26" as="geometry" />
        </mxCell>
        <mxCell id="6hjw9s-Af62eJiDp_Xg_-42" value="- reason: string" style="text;strokeColor=none;fillColor=none;align=left;verticalAlign=top;spacingLeft=4;spacingRight=4;overflow=hidden;rotatable=0;points=[[0,0.5],[1,0.5]];portConstraint=eastwest;whiteSpace=wrap;html=1;" parent="6hjw9s-Af62eJiDp_Xg_-34" vertex="1">
          <mxGeometry y="78" width="180" height="26" as="geometry" />
        </mxCell>
        <mxCell id="6hjw9s-Af62eJiDp_Xg_-43" value="- status: boolean" style="text;strokeColor=none;fillColor=none;align=left;verticalAlign=top;spacingLeft=4;spacingRight=4;overflow=hidden;rotatable=0;points=[[0,0.5],[1,0.5]];portConstraint=eastwest;whiteSpace=wrap;html=1;" parent="6hjw9s-Af62eJiDp_Xg_-34" vertex="1">
          <mxGeometry y="104" width="180" height="26" as="geometry" />
        </mxCell>
        <mxCell id="6hjw9s-Af62eJiDp_Xg_-37" value="" style="line;strokeWidth=1;fillColor=none;align=left;verticalAlign=middle;spacingTop=-1;spacingLeft=3;spacingRight=3;rotatable=0;labelPosition=right;points=[];portConstraint=eastwest;strokeColor=inherit;" parent="6hjw9s-Af62eJiDp_Xg_-34" vertex="1">
          <mxGeometry y="130" width="180" height="8" as="geometry" />
        </mxCell>
        <mxCell id="6hjw9s-Af62eJiDp_Xg_-38" value="+ createadditionalPayment()" style="text;strokeColor=none;fillColor=none;align=left;verticalAlign=top;spacingLeft=4;spacingRight=4;overflow=hidden;rotatable=0;points=[[0,0.5],[1,0.5]];portConstraint=eastwest;whiteSpace=wrap;html=1;" parent="6hjw9s-Af62eJiDp_Xg_-34" vertex="1">
          <mxGeometry y="138" width="180" height="28" as="geometry" />
        </mxCell>
        <mxCell id="6hjw9s-Af62eJiDp_Xg_-39" value="+ updateadditionalPayment()" style="text;strokeColor=none;fillColor=none;align=left;verticalAlign=top;spacingLeft=4;spacingRight=4;overflow=hidden;rotatable=0;points=[[0,0.5],[1,0.5]];portConstraint=eastwest;whiteSpace=wrap;html=1;" parent="6hjw9s-Af62eJiDp_Xg_-34" vertex="1">
          <mxGeometry y="166" width="180" height="26" as="geometry" />
        </mxCell>
        <mxCell id="6hjw9s-Af62eJiDp_Xg_-40" value="+ deleteadditionalPayment()" style="text;strokeColor=none;fillColor=none;align=left;verticalAlign=top;spacingLeft=4;spacingRight=4;overflow=hidden;rotatable=0;points=[[0,0.5],[1,0.5]];portConstraint=eastwest;whiteSpace=wrap;html=1;" parent="6hjw9s-Af62eJiDp_Xg_-34" vertex="1">
          <mxGeometry y="192" width="180" height="26" as="geometry" />
        </mxCell>
        <mxCell id="6hjw9s-Af62eJiDp_Xg_-41" value="+ getadditionalPayment()" style="text;strokeColor=none;fillColor=none;align=left;verticalAlign=top;spacingLeft=4;spacingRight=4;overflow=hidden;rotatable=0;points=[[0,0.5],[1,0.5]];portConstraint=eastwest;whiteSpace=wrap;html=1;" parent="6hjw9s-Af62eJiDp_Xg_-34" vertex="1">
          <mxGeometry y="218" width="180" height="26" as="geometry" />
        </mxCell>
        <mxCell id="6hjw9s-Af62eJiDp_Xg_-44" value="itemCategory" style="swimlane;fontStyle=1;align=center;verticalAlign=top;childLayout=stackLayout;horizontal=1;startSize=26;horizontalStack=0;resizeParent=1;resizeParentMax=0;resizeLast=0;collapsible=1;marginBottom=0;whiteSpace=wrap;html=1;" parent="WIyWlLk6GJQsqaUBKTNV-1" vertex="1">
          <mxGeometry x="40" y="720" width="180" height="218" as="geometry" />
        </mxCell>
        <mxCell id="6hjw9s-Af62eJiDp_Xg_-45" value="- itemCategory_id: int" style="text;strokeColor=none;fillColor=none;align=left;verticalAlign=top;spacingLeft=4;spacingRight=4;overflow=hidden;rotatable=0;points=[[0,0.5],[1,0.5]];portConstraint=eastwest;whiteSpace=wrap;html=1;" parent="6hjw9s-Af62eJiDp_Xg_-44" vertex="1">
          <mxGeometry y="26" width="180" height="26" as="geometry" />
        </mxCell>
        <mxCell id="6hjw9s-Af62eJiDp_Xg_-46" value="- category_name: string" style="text;strokeColor=none;fillColor=none;align=left;verticalAlign=top;spacingLeft=4;spacingRight=4;overflow=hidden;rotatable=0;points=[[0,0.5],[1,0.5]];portConstraint=eastwest;whiteSpace=wrap;html=1;" parent="6hjw9s-Af62eJiDp_Xg_-44" vertex="1">
          <mxGeometry y="52" width="180" height="26" as="geometry" />
        </mxCell>
        <mxCell id="6hjw9s-Af62eJiDp_Xg_-50" value="" style="line;strokeWidth=1;fillColor=none;align=left;verticalAlign=middle;spacingTop=-1;spacingLeft=3;spacingRight=3;rotatable=0;labelPosition=right;points=[];portConstraint=eastwest;strokeColor=inherit;" parent="6hjw9s-Af62eJiDp_Xg_-44" vertex="1">
          <mxGeometry y="78" width="180" height="8" as="geometry" />
        </mxCell>
        <mxCell id="6hjw9s-Af62eJiDp_Xg_-51" value="+ createitemCategory()" style="text;strokeColor=none;fillColor=none;align=left;verticalAlign=top;spacingLeft=4;spacingRight=4;overflow=hidden;rotatable=0;points=[[0,0.5],[1,0.5]];portConstraint=eastwest;whiteSpace=wrap;html=1;" parent="6hjw9s-Af62eJiDp_Xg_-44" vertex="1">
          <mxGeometry y="86" width="180" height="28" as="geometry" />
        </mxCell>
        <mxCell id="6hjw9s-Af62eJiDp_Xg_-52" value="+ updateitemCategory()" style="text;strokeColor=none;fillColor=none;align=left;verticalAlign=top;spacingLeft=4;spacingRight=4;overflow=hidden;rotatable=0;points=[[0,0.5],[1,0.5]];portConstraint=eastwest;whiteSpace=wrap;html=1;" parent="6hjw9s-Af62eJiDp_Xg_-44" vertex="1">
          <mxGeometry y="114" width="180" height="26" as="geometry" />
        </mxCell>
        <mxCell id="6hjw9s-Af62eJiDp_Xg_-53" value="+ deleteitemCategory()" style="text;strokeColor=none;fillColor=none;align=left;verticalAlign=top;spacingLeft=4;spacingRight=4;overflow=hidden;rotatable=0;points=[[0,0.5],[1,0.5]];portConstraint=eastwest;whiteSpace=wrap;html=1;" parent="6hjw9s-Af62eJiDp_Xg_-44" vertex="1">
          <mxGeometry y="140" width="180" height="26" as="geometry" />
        </mxCell>
        <mxCell id="6hjw9s-Af62eJiDp_Xg_-54" value="+ getitemCategory()" style="text;strokeColor=none;fillColor=none;align=left;verticalAlign=top;spacingLeft=4;spacingRight=4;overflow=hidden;rotatable=0;points=[[0,0.5],[1,0.5]];portConstraint=eastwest;whiteSpace=wrap;html=1;" parent="6hjw9s-Af62eJiDp_Xg_-44" vertex="1">
          <mxGeometry y="166" width="180" height="26" as="geometry" />
        </mxCell>
        <mxCell id="6hjw9s-Af62eJiDp_Xg_-55" value="+ getItemCategory()" style="text;strokeColor=none;fillColor=none;align=left;verticalAlign=top;spacingLeft=4;spacingRight=4;overflow=hidden;rotatable=0;points=[[0,0.5],[1,0.5]];portConstraint=eastwest;whiteSpace=wrap;html=1;" parent="6hjw9s-Af62eJiDp_Xg_-44" vertex="1">
          <mxGeometry y="192" width="180" height="26" as="geometry" />
        </mxCell>
        <mxCell id="tLGwMDRVvo9SHU1vA3Fr-0" value="" style="endArrow=open;endFill=1;endSize=12;html=1;rounded=0;exitX=1.006;exitY=0.163;exitDx=0;exitDy=0;exitPerimeter=0;entryX=0;entryY=0.048;entryDx=0;entryDy=0;entryPerimeter=0;" edge="1" parent="WIyWlLk6GJQsqaUBKTNV-1" source="QsSNJspytgetrYn3SfOf-1" target="QsSNJspytgetrYn3SfOf-5">
          <mxGeometry width="160" relative="1" as="geometry">
            <mxPoint x="650" y="430" as="sourcePoint" />
            <mxPoint x="810" y="430" as="targetPoint" />
            <Array as="points" />
          </mxGeometry>
        </mxCell>
        <mxCell id="tLGwMDRVvo9SHU1vA3Fr-1" value="" style="endArrow=open;endFill=1;endSize=12;html=1;rounded=0;exitX=0.994;exitY=0.048;exitDx=0;exitDy=0;exitPerimeter=0;entryX=0;entryY=-0.192;entryDx=0;entryDy=0;entryPerimeter=0;" edge="1" parent="WIyWlLk6GJQsqaUBKTNV-1" source="QsSNJspytgetrYn3SfOf-16" target="QsSNJspytgetrYn3SfOf-37">
          <mxGeometry width="160" relative="1" as="geometry">
            <mxPoint x="231" y="104" as="sourcePoint" />
            <mxPoint x="370" y="103" as="targetPoint" />
            <Array as="points">
              <mxPoint x="300" y="213" />
            </Array>
          </mxGeometry>
        </mxCell>
        <mxCell id="tLGwMDRVvo9SHU1vA3Fr-2" value="" style="endArrow=open;endFill=1;endSize=12;html=1;rounded=0;exitX=1;exitY=0.154;exitDx=0;exitDy=0;exitPerimeter=0;entryX=0.011;entryY=0.043;entryDx=0;entryDy=0;entryPerimeter=0;" edge="1" parent="WIyWlLk6GJQsqaUBKTNV-1" source="QsSNJspytgetrYn3SfOf-22" target="QsSNJspytgetrYn3SfOf-89">
          <mxGeometry width="160" relative="1" as="geometry">
            <mxPoint x="229" y="223" as="sourcePoint" />
            <mxPoint x="370" y="137" as="targetPoint" />
            <Array as="points">
              <mxPoint x="600" y="370" />
            </Array>
          </mxGeometry>
        </mxCell>
        <mxCell id="tLGwMDRVvo9SHU1vA3Fr-3" value="" style="endArrow=open;endFill=1;endSize=12;html=1;rounded=0;exitX=1;exitY=0.108;exitDx=0;exitDy=0;exitPerimeter=0;entryX=-0.012;entryY=0.04;entryDx=0;entryDy=0;entryPerimeter=0;" edge="1" parent="WIyWlLk6GJQsqaUBKTNV-1" source="QsSNJspytgetrYn3SfOf-27" target="QsSNJspytgetrYn3SfOf-53">
          <mxGeometry width="160" relative="1" as="geometry">
            <mxPoint x="220" y="540" as="sourcePoint" />
            <mxPoint x="260" y="720" as="targetPoint" />
            <Array as="points">
              <mxPoint x="320" y="530" />
            </Array>
          </mxGeometry>
        </mxCell>
        <mxCell id="tLGwMDRVvo9SHU1vA3Fr-4" value="" style="endArrow=open;endFill=1;endSize=12;html=1;rounded=0;exitX=1;exitY=0.5;exitDx=0;exitDy=0;entryX=-0.012;entryY=0.078;entryDx=0;entryDy=0;entryPerimeter=0;" edge="1" parent="WIyWlLk6GJQsqaUBKTNV-1" source="QsSNJspytgetrYn3SfOf-28" target="QsSNJspytgetrYn3SfOf-41">
          <mxGeometry width="160" relative="1" as="geometry">
            <mxPoint x="230" y="540" as="sourcePoint" />
            <mxPoint x="368" y="403" as="targetPoint" />
            <Array as="points">
              <mxPoint x="260" y="550" />
              <mxPoint x="320" y="550" />
              <mxPoint x="320" y="730" />
            </Array>
          </mxGeometry>
        </mxCell>
        <mxCell id="tLGwMDRVvo9SHU1vA3Fr-5" value="" style="endArrow=open;endFill=1;endSize=12;html=1;rounded=0;entryX=0;entryY=0.5;entryDx=0;entryDy=0;" edge="1" parent="WIyWlLk6GJQsqaUBKTNV-1" target="QsSNJspytgetrYn3SfOf-43">
          <mxGeometry width="160" relative="1" as="geometry">
            <mxPoint x="220" y="760" as="sourcePoint" />
            <mxPoint x="348" y="880" as="targetPoint" />
            <Array as="points">
              <mxPoint x="320" y="760" />
            </Array>
          </mxGeometry>
        </mxCell>
        <mxCell id="tLGwMDRVvo9SHU1vA3Fr-6" value="" style="endArrow=open;endFill=1;endSize=12;html=1;rounded=0;entryX=0.007;entryY=0.808;entryDx=0;entryDy=0;entryPerimeter=0;" edge="1" parent="WIyWlLk6GJQsqaUBKTNV-1" target="QsSNJspytgetrYn3SfOf-91">
          <mxGeometry width="160" relative="1" as="geometry">
            <mxPoint x="520" y="390" as="sourcePoint" />
            <mxPoint x="630" y="510" as="targetPoint" />
            <Array as="points">
              <mxPoint x="560" y="440" />
            </Array>
          </mxGeometry>
        </mxCell>
        <mxCell id="tLGwMDRVvo9SHU1vA3Fr-7" value="" style="endArrow=open;endFill=1;endSize=12;html=1;rounded=0;entryX=0.185;entryY=0;entryDx=0;entryDy=0;entryPerimeter=0;" edge="1" parent="WIyWlLk6GJQsqaUBKTNV-1" target="QsSNJspytgetrYn3SfOf-89">
          <mxGeometry width="160" relative="1" as="geometry">
            <mxPoint x="520" y="96.5" as="sourcePoint" />
            <mxPoint x="642" y="149.5" as="targetPoint" />
            <Array as="points">
              <mxPoint x="600" y="97" />
              <mxPoint x="600" y="320" />
              <mxPoint x="690" y="320" />
            </Array>
          </mxGeometry>
        </mxCell>
        <mxCell id="tLGwMDRVvo9SHU1vA3Fr-8" value="" style="endArrow=open;endFill=1;endSize=12;html=1;rounded=0;entryX=1.011;entryY=0.846;entryDx=0;entryDy=0;entryPerimeter=0;exitX=1.015;exitY=0;exitDx=0;exitDy=0;exitPerimeter=0;" edge="1" parent="WIyWlLk6GJQsqaUBKTNV-1" source="QsSNJspytgetrYn3SfOf-69" target="QsSNJspytgetrYn3SfOf-97">
          <mxGeometry width="160" relative="1" as="geometry">
            <mxPoint x="960" y="960" as="sourcePoint" />
            <mxPoint x="1000" y="620" as="targetPoint" />
            <Array as="points">
              <mxPoint x="960" y="928" />
              <mxPoint x="960" y="730" />
              <mxPoint x="960" y="540" />
              <mxPoint x="960" y="470" />
              <mxPoint x="930" y="470" />
            </Array>
          </mxGeometry>
        </mxCell>
        <mxCell id="tLGwMDRVvo9SHU1vA3Fr-11" value="" style="endArrow=open;endFill=1;endSize=12;html=1;rounded=0;entryX=0;entryY=0.5;entryDx=0;entryDy=0;exitX=1.004;exitY=0.769;exitDx=0;exitDy=0;exitPerimeter=0;" edge="1" parent="WIyWlLk6GJQsqaUBKTNV-1" source="QsSNJspytgetrYn3SfOf-100" target="6hjw9s-Af62eJiDp_Xg_-35">
          <mxGeometry width="160" relative="1" as="geometry">
            <mxPoint x="920" y="520" as="sourcePoint" />
            <mxPoint x="1060" y="512" as="targetPoint" />
            <Array as="points">
              <mxPoint x="1000" y="520" />
              <mxPoint x="1000" y="1059" />
            </Array>
          </mxGeometry>
        </mxCell>
        <mxCell id="tLGwMDRVvo9SHU1vA3Fr-12" value="" style="endArrow=open;endFill=1;endSize=12;html=1;rounded=0;entryX=1.019;entryY=1.077;entryDx=0;entryDy=0;entryPerimeter=0;exitX=0.011;exitY=0.808;exitDx=0;exitDy=0;exitPerimeter=0;" edge="1" parent="WIyWlLk6GJQsqaUBKTNV-1" source="6hjw9s-Af62eJiDp_Xg_-32" target="QsSNJspytgetrYn3SfOf-103">
          <mxGeometry width="160" relative="1" as="geometry">
            <mxPoint x="1030" y="660" as="sourcePoint" />
            <mxPoint x="950" y="580" as="targetPoint" />
            <Array as="points" />
          </mxGeometry>
        </mxCell>
        <mxCell id="tLGwMDRVvo9SHU1vA3Fr-14" value="" style="endArrow=open;endFill=1;endSize=12;html=1;rounded=0;entryX=1;entryY=0.5;entryDx=0;entryDy=0;exitX=0.011;exitY=0.808;exitDx=0;exitDy=0;exitPerimeter=0;" edge="1" parent="WIyWlLk6GJQsqaUBKTNV-1" target="QsSNJspytgetrYn3SfOf-105">
          <mxGeometry width="160" relative="1" as="geometry">
            <mxPoint x="1040" y="840" as="sourcePoint" />
            <mxPoint x="913" y="841" as="targetPoint" />
            <Array as="points">
              <mxPoint x="978" y="841" />
              <mxPoint x="980" y="643" />
            </Array>
          </mxGeometry>
        </mxCell>
        <mxCell id="tLGwMDRVvo9SHU1vA3Fr-15" value="" style="endArrow=open;endFill=1;endSize=12;html=1;rounded=0;entryX=1.019;entryY=1.077;entryDx=0;entryDy=0;entryPerimeter=0;exitX=0;exitY=0.5;exitDx=0;exitDy=0;" edge="1" parent="WIyWlLk6GJQsqaUBKTNV-1" source="6hjw9s-Af62eJiDp_Xg_-2">
          <mxGeometry width="160" relative="1" as="geometry">
            <mxPoint x="1037" y="430" as="sourcePoint" />
            <mxPoint x="910" y="431" as="targetPoint" />
            <Array as="points">
              <mxPoint x="1000" y="145" />
              <mxPoint x="1000" y="431" />
            </Array>
          </mxGeometry>
        </mxCell>
        <mxCell id="tLGwMDRVvo9SHU1vA3Fr-16" value="" style="endArrow=open;endFill=1;endSize=12;html=1;rounded=0;entryX=0.83;entryY=-0.01;entryDx=0;entryDy=0;entryPerimeter=0;exitX=1;exitY=0.5;exitDx=0;exitDy=0;" edge="1" parent="WIyWlLk6GJQsqaUBKTNV-1" source="QsSNJspytgetrYn3SfOf-84" target="QsSNJspytgetrYn3SfOf-89">
          <mxGeometry width="160" relative="1" as="geometry">
            <mxPoint x="967" y="220" as="sourcePoint" />
            <mxPoint x="840" y="335.5" as="targetPoint" />
            <Array as="points">
              <mxPoint x="960" y="180" />
              <mxPoint x="960" y="320" />
              <mxPoint x="864" y="320" />
            </Array>
          </mxGeometry>
        </mxCell>
      </root>
    </mxGraphModel>
  </diagram>
</mxfile>
